<?xml version="1.0" encoding="utf-8"?>
<!-- Generator: Adobe Illustrator 17.0.0, SVG Export Plug-In . SVG Version: 6.00 Build 0)  -->
<!DOCTYPE svg PUBLIC "-//W3C//DTD SVG 1.1//EN" "http://www.w3.org/Graphics/SVG/1.1/DTD/svg11.dtd">
<svg version="1.1" id="Layer_1" xmlns="http://www.w3.org/2000/svg" xmlns:xlink="http://www.w3.org/1999/xlink" x="0px" y="0px"
	 width="547.589px" height="530.57px" viewBox="0 0 547.589 530.57" enable-background="new 0 0 547.589 530.57"
	 xml:space="preserve">
<ellipse transform="matrix(0.9789 0.2045 -0.2045 0.9789 48.5625 -52.7426)" fill="none" stroke="#49300E" stroke-width="4" stroke-miterlimit="10" cx="279.483" cy="208.604" rx="91.392" ry="47.554"/>
<g>
	<path fill="#224089" stroke="#454649" stroke-width="5" stroke-miterlimit="10" d="M456.665,78.186
		c-9.999-8.98-30.673-19.118-37.171-19.195c-12.282-2.097-9.182,9.43-8.061,9.318c0.439-0.044,5.038,3.868,10.422,9.743
		c5.93,6.471,12.81,15.326,16.143,23.918c0.594,1.479,1.088,3.011,1.513,4.687c2.714,10.721-2.677,15.822-9.885,20.72
		c-4.516,3.371-10.299,6.814-16.686,9.954c-7.047,3.465-14.827,6.56-22.458,8.772c-19.981,5.795-43.153,3.028-44.706,2.479
		c-1.827-0.646,7.648,22.399,15.558,41.024c1.812,10.578,11.027,29.127,13.075,28.873c2.822-0.351,70.807-13.022,97.188-53.207
		S475.553,95.148,456.665,78.186z"/>
</g>
<path fill="#D8D8D8" stroke="#424447" stroke-width="6" stroke-miterlimit="10" d="M234.239,133.048
	c1.014-0.634,1.587-1.038,1.587-1.038c-25.393-3.768-70.411-25.803-76.217-54.081c-2.008-9.781,0.484-22.552,10.161-33.166
	c6.395-7.014,16.573-12.491,28.36-17.669c1.861-0.817,0.054-0.744-0.166-1.077c-0.132-0.2,2.193-0.088,0.943-1.686
	c-4.306-5.502-7.732-6.311-7.732-6.311s-69.038,0.506-82.389,52.76c-0.688,2.692-0.982,4.347-1.005,5.255
	c-10.004,63.54,85.169,120.58,85.169,120.58l23.21-13.175C216.158,183.441,246.736,143.058,234.239,133.048z"/>
<path fill="#D8D8D8" d="M235.001,133.3c1.011-0.638,1.583-1.045,1.583-1.045c-25.409-3.657-70.522-25.496-76.452-53.748
	c-2.051-9.772,0.385-22.554,10.016-33.21c6.365-7.042,16.519-12.563,28.283-17.793c1.857-0.826,0.051-0.744-0.171-1.076
	c-0.133-0.199,2.193-0.098,0.936-1.69c-4.33-5.484-7.76-6.278-7.76-6.278S122.4,19.268,109.277,71.58
	c-0.676,2.695-0.963,4.351-0.983,5.26c-9.727,63.583,85.694,120.208,85.694,120.208l23.152-13.276
	C217.141,183.771,247.542,143.255,235.001,133.3z"/>
<path fill="#CECECE" d="M200.196,175.75c0,0-11.047,1.928-16.455-0.695c-5.409-2.623-9.291-8.071-19.191-7.627
	c-9.901,0.444-9.15-9.841-12.21-9.263c-3.06,0.578-9.287-5.536-10.722-5.582c-1.435-0.046-0.889,0.41-0.475,0.953
	c0.178,0.234,7.953,8.475,18.187,17.163c13.529,11.485,30.716,24.242,34.016,25.14C199.142,197.416,200.196,175.75,200.196,175.75z"
	/>
<ellipse transform="matrix(0.981 0.1938 -0.1938 0.981 45.7154 -50.2967)" fill="#515151" cx="279.981" cy="208.554" rx="90.973" ry="47.336"/>
<path fill="#E5E5E5" stroke="#000000" stroke-width="7" stroke-miterlimit="10" d="M340.226,195.029
	c-27.57-61.539-56.649-92.958-56.94-93.269l-0.448-0.478l-0.387,0.53c-75.241,102.997-97.657,160.403-114.169,210.375l-1.246,3.769
	c-13.368,40.417-24.914,75.323-26.004,124.941c-0.451,20.557-0.875,38.137,7.741,62.948c2.441,7.029,10.884,14.136,19.382,15.23
	c1.082,0.139,8.923,0.779,10.929,0.386c16.967-3.326,39.638-29.883,56.671-35.491c19.536-6.432,47.139-8.198,66.737,0
	c21.123,8.836,33.599,25.223,45.09,29.475c12.19,4.51,21.6,2.595,21.625,2.595c2.316,0,14.67-4.114,17.383-15.107
	c2.723-11.035,3.699-25.084,3.71-25.242C394.996,346.581,365.661,251.803,340.226,195.029z"/>
<path fill="#D1D1D1" d="M213.242,324.87c0,0,38.998,18.567,63.032,14.822c24.398-3.802,39.576-9.651,51.589-18.103
	c12.098-8.512,19.782-21.316,19.782-24.197S217.335,294.336,213.242,324.87z"/>
<ellipse cx="263.354" cy="294.436" rx="70.607" ry="46.221"/>
<path fill="#F4F4F4" d="M210.738,171.009c0,0,0.784-9.117-20.118-19.717s-52.047-44.662-48.877-45.92
	c3.17-1.258,36.513,29.675,38.76,30.251c2.247,0.576,21.376,9.366,24.035,9.594c2.659,0.229,13.264,1.523,14.665-1.418
	C220.602,140.858,210.738,171.009,210.738,171.009z"/>
<path d="M377.074,304.843c-10.062-45.355-23.66-82.118-36.322-109.813c-28.134-61.539-57.808-92.958-58.104-93.269l-0.457-0.478
	l-0.395,0.53c-68.655,92.098-94.209,147.742-110.895,194.214C220.663,286.831,304.238,288.636,377.074,304.843z"/>
<ellipse fill="#E53017" cx="263.011" cy="291.819" rx="66.264" ry="43.603"/>
<path fill="#8C3128" d="M303.778,314.911c-6.712,4.738-13.906,6.236-18.659,8.199c-12.808,5.29-21.75,5.693-36.046,7.068
	c-6.236,0.6-14.81-1.066-20.8-1.228c10.101,4.101,21.997,6.472,34.737,6.472c36.596,0,66.264-19.522,66.264-43.603
	c0-6.391-2.107-12.455-5.861-17.924c-0.982,6.466,1.8,16.747-2.814,24.478C316.698,304.912,310.988,309.823,303.778,314.911z"/>
<ellipse transform="matrix(0.9791 -0.2035 0.2035 0.9791 -57.8109 67.4888)" opacity="0.6" fill="#F9F7F7" cx="299.197" cy="314.797" rx="13.824" ry="8.482"/>
<ellipse opacity="0.6" fill="#F9F7F7" cx="253.338" cy="268.516" rx="32.288" ry="18.064"/>
<ellipse opacity="0.5" fill="#F9F7F7" cx="246.719" cy="261.126" rx="13.001" ry="7.806"/>
<path d="M172.881,288.408c0,0-5.707,15.361-11.77,17.861c-6.063,2.501-7.133,6.073-8.916,8.931
	c-0.543,0.871-0.988,2.306-1.322,3.951c-0.763,3.753-0.957,8.6-0.461,10.338c0.713,2.501,3.21,12.503,4.28,13.932
	c1.07,1.429,1.07,1.429,1.07,1.429"/>
<path fill="none" d="M92.853,432.391c0.591-3.903,7.263-6.742,10.489-7.783c2.097-0.677,7.133-1.231,8.274-2.931
	c0.751,3.802,6.958,9.062,9.628,11.941c2.263,2.441,4.502,4.345,6.5,6.989c-0.082-0.187-0.295-0.551-0.347-0.739
	c0.421,7.629-1.61,15.894-2.144,23.38c-0.239,3.357,0,6.815,0,10.183c0,4.076,1.196,8.514,0.886,12.289
	c-8.624,1.778-15.149,6.513-24.305,3.157c-6.518-2.39-12.484-5.026-18.575-8.364c-0.237,0.001-0.234,0.018,0.011,0.053
	c1.069-2.735-11.458-15.716-1.239-15.713c3.662,0.001,7.191,3.513,10.813,3.966c5.63,0.704,4.603-2.446,6.156-7.18
	c1.346-4.101,2.202-6.276,0.1-10.424c-1.196-2.36-1.922-3.787-1.927-6.481c-0.005-2.425,1.897-4.836,1.789-6.866
	c-0.129-2.42-3.799-5.593-6.109-6.095"/>
<path d="M387.434,359.261c0,0-1.88-16.278,2.39-21.256c4.27-4.978,3.604-8.647,3.897-12.003c0.089-1.023-0.165-2.503-0.613-4.121
	c-1.021-3.691-3.047-8.098-4.277-9.423c-1.77-1.905-8.531-9.688-10.132-10.476c-1.602-0.788-1.602-0.788-1.602-0.788"/>
<path d="M440.617,287.996c-2.26-1.451-4.501-5.783-4.921,9.126c-0.09,3.191-5.783,18.358-7.532,27.459
	c-1.017,5.289-0.85,6.781-7.074,7.377c-6.881,0.659-18.552-7.632-23.054-9.784c-2.732-1.306-12.384-6.565-14.247-1.395
	c-1.461,4.055,7.327,8.776,9.951,10.372c5.785,3.519,13.148,4.42,19.369,7.394c2.948,1.409,11.33,7.272,14.642,5.19
	c2.141-1.346,5.244-10.32,5.923-12.382c2.8-8.515,4.531-17.521,7.841-25.872c2.366-5.968,12.947-13.911,0.223-16.95"/>
<path d="M72.619,349.517"/>
<path d="M86.306,261.365c0.069-2.391-11.049-9.184-15.848-15.697c-2.113-2.868-8.401-11.321-10.476-12.959
	c-2.068-1.633-6.698-3.972-9.251-4.245c-2.619-0.28-11.065-0.795-12.516,2.503c-1.057,2.868,2.12,8.197,4.462,9.795
	c5.07,3.459,10.477,9.631,12.734,11.537c3.756,3.173,5.774,7.343,7.248,17.354c-6.704-0.457-16.202-9.608-22.746-12.58
	c-5.254-2.386-21.934-2.812-23.184,1.645c-0.536,1.912-0.43,7.552,0.653,9.036c1.056,1.448,7.554,2.968,9.549,4.129
	c3.3,1.92,9.378,3.104,12.174,5.702c4.803,4.461,10.594,5.982,11.883,12.358c1.666,8.239-2.233,18.897,5.048,24.542
	c12.875,9.981,34.429,19.493,44.472-2.714c2.065-4.565,1.494-3.666,4.985-7.917c2.59-3.154,7.951-5.458,10.409-8.65
	c5.28-6.857-4.944-14.741-6.744-22.871c-2.081-9.396-2.193-18.874-12.315-16.86c-3.208,0.638-9.296,2.715-10.556,5.864"/>
<path d="M-19.626,295.104"/>
<path d="M96.792,290.066c2.087-1.69,4.324,4.158,5.892,8.532c1.657,4.622,2.465,9.603,4.063,14.354
	c0.507,1.506,7.203,18.773,14.273,18.671c6.912-0.1,17.604-9.62,21.843-12.252c2.573-1.598,11.59-7.882,14.009-2.948
	c1.897,3.87-6.321,9.526-8.754,11.4c-5.365,4.132-12.584,5.835-18.442,9.472c-2.776,1.724-10.465,8.47-13.985,6.764
	c-2.275-1.103-6.344-9.683-7.244-11.658c-3.716-8.157-7.651-18.909-12.599-17.541c-6.188,1.711-12.423-19.724-0.109-24.139"/>
<path d="M454.511,255.365c0.407,0.883,12.317-7.395,17.116-13.908c2.113-2.868,10.257-11.619,12.619-12.807
	c2.584-1.299,5.646-2.807,8.199-3.08c2.619-0.28,4.622-0.354,8.217,1.643c2.672,1.484,3.177,4.039,2.191,6.711
	c-2.023,5.485-6.18,8.622-8.457,10.546c-3.243,2.739-15.87,10.4-18.109,17.843c-0.355,1.178,0.479,2.052,1.285,2.595
	c6.704-0.457,16.788-10.862,23.332-13.833c5.254-2.386,12.084-3.591,17.699-2.496c1.948,0.38,4.793,3.287,2.876,9.039
	c-0.567,1.7-1.506,4.656-7.593,8.266c-3.283,1.947-13.116,3.136-18.503,6.148c-5.721,3.199-14.334,10.444-9.908,5.677
	c3.244-3.494,10.997,14.122,3.715,19.767c-12.875,9.981-38.839,30.503-48.881,8.296c-2.065-4.565-1.494-3.666-4.985-7.917
	c-2.59-3.154-7.951-5.458-10.409-8.65c-5.28-6.857,2.311-15.823,6.744-22.871c5.371-8.539,0.879-10.286,12.858-13.78
	c3.14-0.916,8.753-0.365,10.013,2.784"/>
<path fill="none" d="M241.804,28.723c1.023-0.104,2.037-0.259,3.043-0.465"/>
<path fill="#D6D6D6" d="M426.342,60.663c-20.924-8.484-16.833,7.231-15.526,7.095c1.307-0.136,39.628,34.599,25.744,52.213
	c-6.824,8.657-27.067,19.987-46.355,25.672c-19.956,5.882-43.139,3.216-44.694,2.674c-3.058-1.066,25.757,63.941,25.757,63.941
	l41.676-10.983l50.116-39.783l14.621-42.516l-16.633-31.614L426.342,60.663z"/>
<path fill="#F4F4F4" d="M342.923,186.929c0,0,2.502-8.802,25.805-11.296c23.303-2.494,64.508-23.289,61.991-25.59
	c-2.517-2.301-44.667,14.789-46.971,14.53c-2.305-0.259-23.308,1.172-25.875,0.442c-2.567-0.73-12.941-3.282-13.207-6.529
	C344.399,155.24,342.923,186.929,342.923,186.929z"/>
<path fill="#CECECE" d="M363.116,182.131c2.347-0.303,16.843,21.717,18.696,25.524c1.654,3.399,8.072-3.008,11.117-4.613
	c3.095-1.632,10.56-1.822,12.891-1.598c7.657,0.737,10.324-4.99,13.974-6.671c1.669-0.769,2.836-2.202,7.435-5.54
	c2.316-1.682,6.608-5.015,9.406-7.85c1.568-1.589,9.746-6.654,11.349-8.374c4.166-4.472,2.454-3.76,5.912-9.441
	c2.917-4.792,4.136,1.384,8.895-11.942c1.708-4.782,5.065-4.779,5.831-11.258c0.55-4.656,5.157-13.928,3.038-19.945
	c-1.164-3.304,0.095-11.266-0.936-14.377c-1.267-3.822-8.717-6.08-10.48-10.187c-4.999-11.643-12.487-21.762-25.057-25.905
	c-12.88-4.245-22.205-11.516-16.443-11.552c6.4-0.04,27.262,10.06,37.345,19.036c18.961,16.88,41.517,46.722,15.312,87.021
	c-26.206,40.299-94.134,53.267-96.955,53.63S355.042,183.175,363.116,182.131z"/>
<path fill="#CECECE" d="M178.88,107.355c0,0-10.733-8.912-16.409-21.29c-4.709-10.269-5.469-23.003,2.015-34.284
	c5.51-8.306,15.168-17.486,32.848-24.308c5.591-2.158-5.214-5.442-6.37-5.13c-5.96,1.608-12.572,3.79-16.286,5.157
	c-4.693,1.728-7.833,1.772-7.833,1.772c-5.962,3.111-3.32,3.261-6.735,6.348c-3.338,3.017-9.025,5.964-9.933,11.036
	c-0.281,1.569-2.248,1.956-3.48,4.741c-1.232,2.786-2.458,6.008-2.613,7.786c-0.251,2.875,0.848,7.367,1.441,10.404
	c0.455,2.334,0.447,6.16,1.403,8.661c1.024,2.679,4.038,6.086,5.542,9.571c1.728,4.004,0.815,5.616,2.441,8.29
	c1.825,3,5.237,2.343,7.031,3.864c3.338,2.829,5.609,5.824,5.935,6.252C168.961,107.652,178.88,107.355,178.88,107.355z"/>
<path fill="#CECECE" d="M400.081,142.334c0,0,12.815-4.701,24.153-12.243c9.406-6.257,18.207-10.998,14.827-24.107
	c-2.347-9.102-6.718-13.936-18.167-29.037c-3.621-4.776,2.484-4.257,3.303-3.384c4.224,4.502,10.975,9.631,13.415,12.748
	c3.082,3.938-1.397,7.894,5.519,10.192c6.382,2.12,3.754,3.451,5.035,7.872c1.252,4.322-4.997,17.1-7.126,18.724
	c-2.28,1.74-4.258,6.396-7.369,8.569c-3.575,2.497-3.784,4.352-6.574,5.771c-3.13,1.592-4.631,2.288-6.957,2.638
	c-4.327,0.651-7.148,3.203-7.65,3.396C410.818,144.115,400.081,142.334,400.081,142.334z"/>
<path fill="none" d="M228.113,127.149c1.433,1.279,2.006,0.616,2.011-1.166"/>
<path fill="#846B39" d="M234.572,131.437c3.415-4.479-4.016-8.253-7.138-10.499c-0.018,1-0.672,2.263-0.666,3.233
	c-1.782-2.159-3.797-4.359-5.961-6.003c-0.021,1.226-0.788,2.699-0.769,3.935c-2.079-2.514-5.498-5.1-9.013-5.382
	c0.26,1.596-0.143,3.505,0.664,5.235c-2.453,0.027-4.975-0.945-7.07-2.128c0.471,1.901,1.553,4.52,1.107,6.54
	c-2.608-1.114-5.574-2.59-8.351-1.837c0.934,1.502,1.798,3.815,2.052,5.53c-1.642-0.566-3.952-0.617-5.564-1.26
	c0.077,0.833-0.262,1.793-0.133,2.743c-3.185-0.04-5.721-2.235-8.706-2.957c1.013,2.977,4.106,4.68,4.525,8.231
	c-3.064-0.694-6.842-1.243-7.88,2.29c2.309,0.239,3.95,1.847,4.405,4.221c-2.67-1.03-6.812-3.416-9.054-1.326
	c2.372,2,5.511,3.947,6.584,6.837c-1.712-0.191-3.612,0.425-5.156,0.313c1.169,0.525,2.194,1.751,3.016,2.226
	c-2.467-0.022-5.329,0.906-6.855,2.624c2.287,1.34,7.278,3.031,6.705,6.2c-0.366,2.023-6.089,3.104-7.776,4.717
	c1.256-0.013,2.687,0.381,4.05,0.209c-0.887,0.279-2.191,1.071-3.625,1.3c1.119,0.19,2.769,1.269,3.656,1.538
	c-3.756,1.359-5.772,3.807-8.013,6.986c1.812-0.301,3.666,0.502,5.126,0.825c-1.498,2.186-4.04,3.927-4.57,6.784
	c1.678-1.3,3.851-1.414,5.967-0.568c-0.649,2.215-1.967,4.208-3.105,6.331c0.924-0.615,2.06-0.922,2.964-1.585
	c-0.819,1.183-1.118,2.902-1.833,4.119c1.791-1.27,3.436-0.859,5.081-0.775c-0.572,0.838-0.991,1.769-0.579,2.45
	c0.651-0.577,1.479-0.926,2.362-1.012c-0.918,1.696-1.723,3.18-2.158,5.135c1.227-1.408,3.21-1.547,4.393-3.029
	c-1.239,2.341-1.694,5.475-1.315,7.986c1.37-0.358,2.689-2.938,3.575-4.237c-0.058,1.606-1.41,4.489-0.758,5.751
	c2.583-3.189,5.947-8.168,5.817-12.909c-0.021-0.758,3.16-7.484,2.955-7.999c3.116-5.624,3.25-12.462,7.306-16.941
	c2.886-3.187,7.208-5.203,10.367-8.088c3.071-2.804,4.996-5.955,8.335-8.36c2.534-1.825,5.363-2.734,7.84-4.96
	C230.497,141.067,235.998,136.191,234.572,131.437z"/>
<path fill="#FCFBFA" d="M286.084,90.652c-12.568,0.022-21.607,6.08-24.955,17.816c-2.016,7.066-1.922,7.409,4.373,12.747
	c8.251,6.996,27.021,15.627,38.409,12.786c14.418-3.597,17.344-27.733,7.073-36.925c-5.702-5.103-17.853-7.14-25.106-9.957
	c-0.622,0.803-0.142,1.199-0.426,2.06"/>
<path fill="#846B39" d="M349.771,147.297c-0.721-5.586,7.602-5.143,11.428-5.529c-0.484,0.875-0.548,2.296-1.039,3.133
	c2.622-0.98,5.467-1.879,8.162-2.222c-0.594,1.072-0.666,2.732-1.3,3.793c3.057-1.139,7.31-1.671,10.496-0.159
	c-1.023,1.252-1.627,3.108-3.19,4.204c2.111,1.249,4.781,1.667,7.187,1.688c-1.358,1.412-3.604,3.14-4.226,5.112
	c2.815,0.338,6.122,0.541,8.152,2.581c-1.56,0.835-3.463,2.407-4.541,3.765c1.705,0.33,3.732,1.439,5.449,1.688
	c-0.483,0.683-0.669,1.684-1.255,2.442c2.779,1.556,6.073,0.922,9.019,1.788c-2.365,2.073-5.895,2.003-8.032,4.869
	c3.001,0.93,6.548,2.341,5.682,5.92c-2.12-0.947-4.344-0.373-5.924,1.455c2.827,0.442,7.608,0.444,8.506,3.375
	c-3.054,0.547-6.746,0.665-9.119,2.633c1.578,0.69,2.917,2.172,4.31,2.847c-1.275-0.129-2.775,0.421-3.725,0.422
	c2.149,1.213,4.164,3.447,4.627,5.697c-2.651,0.018-7.819-1.01-8.906,2.021c-0.694,1.936,3.724,5.731,4.38,7.971
	c-1.082-0.639-2.518-1.012-3.613-1.842c0.629,0.685,1.363,2.022,2.491,2.937c-1.064-0.394-3.032-0.284-3.935-0.494
	c2.575,3.054,3.098,6.182,3.452,10.055c-1.419-1.166-3.426-1.396-4.853-1.847c0.205,2.642,1.538,5.42,0.569,8.16
	c-0.804-1.965-2.63-3.149-4.885-3.473c-0.544,2.243-0.398,4.628-0.473,7.035c-0.493-0.994-1.323-1.828-1.776-2.854
	c0.118,1.434-0.482,3.072-0.47,4.483c-1.325-2.881-1.213-7.199-3.297-8.707c-2.194-1.587-2.853-1.309-2.69-3.008
	c0.203-2.124-0.074-1.908-0.261-4.1c-0.534-6.259-2.753-13.512-4.084-19.673c-0.908-4.202-3.645-8.108-4.94-12.186
	c-1.259-3.963-1.353-7.655-3.044-11.406c-1.284-2.847-3.28-5.048-4.313-8.213C348.489,157.675,346.16,150.702,349.771,147.297"/>
<path fill="none" stroke="#443B31" stroke-width="5" stroke-miterlimit="10" d="M191.221,195.551
	c4.046-25.831,46.557-38.513,96.585-30.575c44.778,7.105,79.334,29.782,83.194,52.985c-0.14-49.476-31.184-93.048-76.172-100.08
	c-48.515-7.583-94.794,28.943-106.161,82.127l1.816,0.287C190.523,199.365,191.076,196.479,191.221,195.551z"/>
<path fill="#515151" d="M369.808,219.176c-0.091-1.107-0.818-1.845-1.202-2.845c-0.486-1.267-0.042-2.717-0.522-3.943
	c-0.355-0.905-1.054-1.808-1.426-2.783c-0.402-1.054-0.804-2.168-1.465-3.223c-1.392-2.226-2.962-3.873-4.727-5.836
	c-1.108-1.232-1.78-2.597-2.836-3.81c-0.83-0.954-2.756-3.478-4.139-3.563c-2.679-0.165-0.609,4.543-0.063,5.61
	c0.837,1.636,1.694,2.947,2.329,4.694c0.491,1.348,1.007,2.802,1.595,4.134c0.896,2.028,2.127,3.946,2.91,6.011
	c0.834,2.199,1.593,4.549,2.591,6.707c0.827,1.788,2.467,4.021,4.633,3.885C370.158,224.045,369.975,221.205,369.808,219.176z"/>
<g>
	<path fill="#BAA54A" d="M192.245,194.492c1.305-8.331,10.468-15.732,18.596-20.8c17.075-10.647,43.103-13.188,76.997-7.81
		c44.778,7.105,79.334,29.782,83.194,52.985c-0.14-49.476-31.184-93.048-76.172-100.08c-48.515-7.583-93.013,24.421-104.38,77.605
		l-0.003,4.294C190.518,199.754,192.1,195.42,192.245,194.492z"/>
</g>
<g>
	<g>
		<path fill="#49300E" d="M281.289,156.215l0.597-4.827c-0.008,0-0.016-0.001-0.023-0.001c0.037,0.002,0.072,0.108,0.113-0.046
			c1.276-4.819,4.246-34.707,4.246-34.707c0.011-0.086-8.611,0.103-8.611,0.103l-0.228,34.89c-0.409-0.037-0.826-0.067-1.233-0.1
			c-41.89-3.433-76.636,10.325-82.515,32.401C203.203,163.382,239.36,151.079,281.289,156.215z"/>
		<path fill="#49300E" d="M371.331,213.552c2.338-24.544-31.472-52.773-75.909-60.392l8.975-34.595c0,0-7.134-1.546-7.333-1.657
			c0,0-6.814,30.051-6.944,35.034c-0.003,0.117,0.008,0.209,0.01,0.317c-0.035-0.005-0.069-0.011-0.103-0.015l-0.555,4.498
			c45.929,6.693,79.287,31.997,80.751,54.658c-10.022-20.28-39.265-43.743-82.136-49.385c-48.079-6.327-89.944,8.077-95.868,32.393
			c9.6-21.641,48.713-33.513,93.839-27.575c14.107,1.857,27.228,6.039,38.241,10.538c26.59,10.863,44.729,28.074,45.955,43.863
			c0.07,0.907,0.041,4.697-0.172,5.574c0.997-2.248,0.992-3.298,1.313-5.737C371.8,217.982,372.041,216.618,371.331,213.552z"/>
	</g>
</g>
<path fill="#515151" d="M365.273,223.342c1.862-0.113,3.578-1.081,4.382-2.791c1.258-2.673-0.426-4.705-0.747-7.278"/>
<path fill="#49300E" d="M190.059,199.446c0.534-2.474,2.592-5.635,3.992-8.192c1.645-3.004,3.524-5.671,5.95-8.089
	c0.68-0.678,3.566-2.764,2.841-3.968c-1.007-1.673-2.93,1.603-3.63,2.241c-2.139,1.95-4.722,4.783-6.284,7.253
	c-0.115-2.363,1.344-5.282,2.477-7.314c1.35-2.42,3.971-4.746,5.062-7.148c-1.972-0.378-4.327,3.779-5.209,5.249
	c-1.401,2.334-3.329,5.499-4.468,7.646c-1.18,2.225-1.355,4.925-1.749,7.392c-0.174,1.09-0.645,2.574-0.41,3.723
	c0.33,1.615,2.098,1.991,1.67,0.286"/>
<path fill="none" d="M185.146,183.123c3.017-4.952,4.9-10.608,8.077-15.502c-2.438,0.35-4.474,4.882-5.546,6.885
	c-1.14,2.129-3.465,6.237-3.01,8.741c0.546,0.227,0.704,0.009,1.027-0.272"/>
<path fill="#515151" d="M192.209,204.535c-1.459-1.083-1.5-4.56-1.49-6.281c0.016-2.955,1.006-4.614,3.12-6.578
	c0.441-0.41,1.909-1.958,2.38-1.934c2.53,0.128,1.234,6.294,0.97,7.591c-0.354,1.734-1.65,7.832-3.614,8.571
	c-1.418,0.534-1.492-0.688-2.164-1.828"/>
</svg>
